<?xml version="1.0" encoding="UTF-8" standalone="no"?>
<!-- Created with Inkscape (http://www.inkscape.org/) -->

<svg
   xmlns:dc="http://purl.org/dc/elements/1.1/"
   xmlns:cc="http://creativecommons.org/ns#"
   xmlns:rdf="http://www.w3.org/1999/02/22-rdf-syntax-ns#"
   xmlns:svg="http://www.w3.org/2000/svg"
   xmlns="http://www.w3.org/2000/svg"
   xmlns:sodipodi="http://sodipodi.sourceforge.net/DTD/sodipodi-0.dtd"
   xmlns:inkscape="http://www.inkscape.org/namespaces/inkscape"
   id="svg2"
   version="1.1"
   inkscape:version="0.91 r13725"
   width="128"
   height="128"
   viewBox="0 0 128 128"
   sodipodi:docname="launcher_bfb.svg">
  <metadata
     id="metadata8">
    <rdf:RDF>
      <cc:Work
         rdf:about="">
        <dc:format>image/svg+xml</dc:format>
        <dc:type
           rdf:resource="http://purl.org/dc/dcmitype/StillImage" />
        <dc:title></dc:title>
      </cc:Work>
    </rdf:RDF>
  </metadata>
  <defs
     id="defs6" />
  <sodipodi:namedview
     pagecolor="#ffffff"
     bordercolor="#666666"
     borderopacity="1"
     objecttolerance="10"
     gridtolerance="10"
     guidetolerance="10"
     inkscape:pageopacity="0"
     inkscape:pageshadow="2"
     inkscape:window-width="1623"
     inkscape:window-height="1026"
     id="namedview4"
     showgrid="false"
     inkscape:zoom="3.2589722"
     inkscape:cx="-6.7668497"
     inkscape:cy="43.129083"
     inkscape:window-x="57"
     inkscape:window-y="24"
     inkscape:window-maximized="1"
     inkscape:current-layer="g4146" />
  <g
     id="g4146">
    <path
       style="fill:#e0e0e0"
       d="M 57.75,113.42893 C 38.267662,110.95423 21.797741,96.84572 16.318403,77.937665 9.6123095,54.79634 20.326059,30.285279 41.839525,19.550097 c 8.306026,-4.144693 18.236559,-5.992034 26.97358,-5.017799 11.821565,1.318183 21.206155,5.676358 29.702575,13.79379 19.81221,18.928468 20.48838,50.032092 1.51863,69.856122 -8.19674,8.56586 -17.33662,13.33267 -28.90854,15.07695 -5.350025,0.80643 -8.089779,0.8412 -13.37577,0.16976 z M 83.78793,99.052445 c 5.34159,-2.42605 4.59568,-10.193185 -1.16135,-12.09318 -2.356695,-0.777775 -5.83906,0.545415 -7.16704,2.723255 -1.992105,3.266985 -0.63106,8.138815 2.675305,9.576185 2.152075,0.935565 3.22527,0.896405 5.653085,-0.20626 z M 69.620725,92.19339 c 1.610695,-0.240945 1.998725,-0.569205 2.7916,-2.361615 1.837825,-4.15465 5.64851,-6.290605 10.146515,-5.687295 1.938045,0.259945 2.05958,0.18614 4.2211,-2.563415 2.691945,-3.42428 5.07731,-8.94082 5.52944,-12.78772 l 0.332935,-2.832755 -4.6403,0.144705 -4.640295,0.144705 -0.6995,2.73788 c -0.93679,3.666635 -2.55803,6.310125 -5.63529,9.188545 -4.88126,4.56585 -11.21958,6.202005 -17.712276,4.57219 -2.874688,-0.72161 -3.507899,-0.751065 -3.879897,-0.18048 -1.755735,2.693005 -3.943178,7.01373 -3.7275,7.362705 0.387704,0.62732 5.579615,2.166725 8.760871,2.597605 2.664595,0.3609 5.094987,0.27193 9.152597,-0.335055 z M 50.437657,84.046605 C 51.571946,82.137315 52.5,80.380105 52.5,80.14169 c 0,-0.238415 -0.9865,-1.40166 -2.192222,-2.584985 -4.259124,-4.180015 -6.409959,-10.74466 -5.399627,-16.480411 0.707441,-4.016205 2.292534,-7.168209 5.210164,-10.360561 1.358261,-1.486153 2.393541,-2.887222 2.300624,-3.113487 -0.704423,-1.715369 -4.230865,-7.101601 -4.647827,-7.099018 -0.286611,0.0018 -1.576797,0.908114 -2.867078,2.014086 -2.826487,2.422738 -6.389425,7.693125 -7.811213,11.554538 l -1.039016,2.821853 1.042106,0.928147 c 3.078227,2.741613 3.216897,8.921913 0.270747,12.066858 -0.989052,1.05579 -1.020953,1.309865 -0.438085,3.48914 0.345753,1.292735 1.339384,3.592815 2.208067,5.11129 1.703356,2.977495 8.103287,9.73061 8.808599,9.294705 0.236542,-0.14619 1.358131,-1.82795 2.492418,-3.73724 z M 33.45058,69.775555 c 1.964394,-1.015825 3.200584,-3.125545 3.25393,-5.553245 0.09036,-4.112069 -2.974013,-7.047415 -6.895725,-6.605381 -2.93678,0.331018 -4.609326,1.577362 -5.600849,4.173628 -0.79545,2.082856 -0.793637,2.340778 0.03166,4.501773 1.434743,3.75682 5.620763,5.339805 9.210989,3.483225 z m 59.043485,-9.18604 C 92.477265,56.794342 89.75249,50.203688 86.523785,46.148607 L 84.57257,43.697986 81.411285,43.885471 C 78.603025,44.05202 77.99874,43.911342 76,42.625714 73.990295,41.333033 72.54996,39.368559 71.81285,36.91485 71.240405,35.009273 59.448964,35.05342 54.375,36.980136 52.79375,37.580579 51.5,38.187874 51.5,38.329682 c 0,0.317692 3.494034,6.697029 4.111875,7.50738 0.340649,0.446789 0.828771,0.430176 2.042861,-0.06953 4.320918,-1.778428 10.452679,-1.340478 15.261344,1.090012 3.56277,1.800764 7.71246,6.341664 9.041525,9.893918 C 82.530925,58.283791 83,59.84817 83,60.227862 c 0,1.866898 0.42527,2.025106 5.004205,1.861653 L 92.5,61.929031 92.494065,60.589515 Z M 83.951115,40.52494 C 89.22916,37.832281 88.22201,30.040778 82.39302,28.471192 c -2.525575,-0.680066 -5.966075,0.752843 -7.10752,2.96016 -1.7411,3.366916 -0.34443,7.938932 2.849345,9.327355 2.21631,0.96349 3.57662,0.908816 5.81627,-0.233767 z"
       id="path4188"
       inkscape:connector-curvature="0" />
  </g>
  <path
     style="fill:#000000"
     d=""
     id="path4142"
     inkscape:connector-curvature="0" />
  <path
     style="fill:#000000"
     d=""
     id="path4140"
     inkscape:connector-curvature="0" />
  <path
     style="fill:#000000"
     d=""
     id="path4138"
     inkscape:connector-curvature="0" />
</svg>
